<svg xmlns="http://www.w3.org/2000/svg" width="16" height="16">
  <path d="M 2 0 C 0.892 0 0 0.892 0 2 L 0 14 C 0 15.108 0.892 16 2 16 L 10 16 L 10 14 L 2 14 L 2 2 L 14 2 L 14 3 L 13.939453 2.9394531 L 8 8.8789062 L 6.0605469 6.9394531 L 3.9394531 9.0605469 L 8 13.121094 L 14 7.1210938 L 14 10 L 16 10 L 16 5.1210938 L 16.060547 5.0605469 L 16 5 L 16 2 C 16 0.892 15.108 0 14 0 L 2 0 z M 11 11 L 11 16 L 16 16 L 16 11 L 11 11 z M 12 12 L 13 12 L 13 13 L 14 13 L 14 12 L 15 12 L 15 14 L 14 14 L 14 15 L 13 15 L 13 14 L 12 14 L 12 12 z " fill="#c0bfbc" />
</svg>
