<?xml version="1.0" encoding="UTF-8"?>
<svg version="1.0" viewBox="0 0 128 128" xmlns="http://www.w3.org/2000/svg">
<path d="m20 16c-4.432 0-8 3.568-8 8v88c0 4.432 3.568 8 8 8h88c4.432 0 8-3.568 8-8v-88c0-4.432-3.568-8-8-8zm0 8h88v88h-88z"/>
<path d="m20 12c-4.432 0-8 3.568-8 8v88c0 4.432 3.568 8 8 8h88c4.432 0 8-3.568 8-8v-88c0-4.432-3.568-8-8-8h-88zm0 8h88v88h-88v-88z" fill="#241f31"/>
<rect x="20" y="20" width="88" height="88" fill="#f6f5f4"/>
<path d="m106.34 26.344-50.762 50.762-22.375-19.18-10.414 12.148 33.625 28.82 61.238-61.238z" fill="#33d17a"/>
</svg>
